<?xml version="1.0" standalone="no"?>
<!DOCTYPE svg PUBLIC "-//W3C//DTD SVG 20010904//EN"
 "http://www.w3.org/TR/2001/REC-SVG-20010904/DTD/svg10.dtd">
<svg version="1.0" xmlns="http://www.w3.org/2000/svg"
 width="60.000000pt" height="60.000000pt" viewBox="0 0 60.000000 60.000000"
 preserveAspectRatio="xMidYMid meet">

<g transform="translate(0.000000,60.000000) scale(0.100000,-0.100000)"
fill="#000000" stroke="none">
<path d="M245 555 c-14 -13 -25 -36 -25 -50 0 -25 -1 -25 -78 -25 -47 0 -83
-5 -90 -12 -17 -17 -17 -359 0 -376 17 -17 479 -17 496 0 17 17 17 359 0 376
-7 7 -43 12 -90 12 -70 0 -78 2 -78 19 0 33 -11 51 -41 66 -40 21 -66 19 -94
-10z m84 -29 c7 -8 11 -31 9 -52 -6 -72 -70 -72 -76 0 -4 41 11 66 38 66 10 0
23 -6 29 -14z m-97 -163 c19 -17 25 -78 8 -88 -18 -11 -11 -53 9 -60 11 -3 22
-12 25 -20 4 -12 -8 -15 -74 -15 -66 0 -78 2 -74 15 4 8 10 15 14 15 5 0 16 7
25 16 14 15 14 18 0 40 -43 66 12 147 67 97z m243 -83 c0 -12 -16 -16 -69 -18
-69 -3 -95 6 -81 28 4 7 33 10 78 8 56 -2 72 -6 72 -18z m0 -80 c0 -12 -16
-16 -69 -18 -69 -3 -95 6 -81 28 4 7 33 10 78 8 56 -2 72 -6 72 -18z"/>
</g>
</svg>
